<?xml version="1.0" encoding="utf-8"?>
<!-- Generator: Adobe Illustrator 27.2.0, SVG Export Plug-In . SVG Version: 6.00 Build 0)  -->
<svg version="1.1" id="Layer_1" xmlns="http://www.w3.org/2000/svg" xmlns:xlink="http://www.w3.org/1999/xlink" x="0px" y="0px"
	 viewBox="0 0 465.5 152.4" style="enable-background:new 0 0 465.5 152.4;" xml:space="preserve">
<style type="text/css">
	.st0{fill:#F99D2A;}
	.st1{fill:#FFCE34;}
</style>
<g>
	<g>
		<path class="st0" d="M146.5,39.3c-5.1-8.1-15.4-6.2-23.8-3.9c-8.4,2.4-8.3,6-6.7,12.5l1.3-0.4c2.2,3.8,7.6,3.6,14.7,1.6
			C139.6,46.9,144.9,45.2,146.5,39.3C146.5,39.3,146.5,39.3,146.5,39.3L146.5,39.3z"/>
		<path class="st1" d="M115.1,19.7c-8.1,0-15.1,4.2-19.2,10.6c0,0-5.4,8-5.4,8C103.2,48.9,103,62.5,103,62.6
			c-3.2-7.4-8.9-14.3-17.3-19.4C56.7,25.7,10.9,2.4,10.9,2.4C8.6,48.9,49.4,69.7,49.4,69.7c-11.4,0.2-26.9-8.7-26.9-8.7
			c1.7,21.4,18.1,38.3,31.6,44.3c6.4,2.9,12.3,4.4,17.7,4.8c-15.3,2.6-30.5-3.1-30.5-3.1L1.7,145c16.5,9.2,41.5,5.2,50.7-8.1
			c-3.9-2-6.5-3.7-7.9-5c56.6,7.4,82-22.8,80.9-59.1c-0.2-6.6,0-9,4.3-12.5c5.1-4.2,8.3-10.5,8.3-17.6C138,30,127.8,19.7,115.1,19.7
			z"/>
		<path d="M126.6,36c0,2.7-2.2,5-5,5c-2.7,0-5-2.2-5-5c0-2.7,2.2-5,5-5C124.3,31,126.6,33.2,126.6,36z"/>
	</g>
	<g>
		<path class="st1" d="M175.5,115.7c-16.6,0-29.1-12.4-29.1-28.7c0-16.7,12.6-29.2,29.3-29.2c9.3,0,16,2.6,21.6,8.5
			c-1.2,1.9-4.4,6.2-8.9,6.2c-1.4,0-2.8-0.4-4.2-1.2c-2.6-1.5-5.4-2.2-8.6-2.2c-8.8,0-15.7,7.6-15.7,17.4c0,10.4,6.9,17.8,16.4,17.8
			c3.4,0,6.3-0.8,9.2-2.5c1-0.5,2.2-0.8,3.3-0.8c4.1,0,7.4,3.6,8.8,5.3C192.9,111.4,186.8,115.7,175.5,115.7z"/>
		<path class="st1" d="M218.2,115.5c-9.3,0-18.7-5.1-18.7-16.4c0-15.2,13.9-17.4,22.2-17.4c6.2,0,10.3,1.1,13.9,2.3l2,0.7v-3
			c0-7.8-5-12.2-14.1-12.2c-2.9,0-5.5,0.2-8.1,0.7c-0.6,0.1-1.1,0.2-1.6,0.2c-5.3,0-7.9-5.6-8.8-8.1c5.8-2.4,11.8-4,21-4
			c8.4,0,14.7,2.1,18.8,6.1c3.9,3.9,5.9,9.8,5.9,17.6v32.4h-13.1v-5.7C237.4,108.7,230.5,115.5,218.2,115.5z M225.6,88.7
			c-8.1,0-13,3.6-13,9.5c0,5.4,4.1,8.8,10.6,8.8c8.5,0,14.5-4.8,14.5-11.7v-3.9l-0.9-0.4C233.6,89.5,229.6,88.7,225.6,88.7z"/>
		<path class="st1" d="M330.8,114.9c-9.3,0-18.7-5.1-18.7-16.4c0-15.2,13.9-17.4,22.2-17.4c6.2,0,10.3,1.1,13.9,2.3l2,0.7v-3
			c0-7.8-5-12.2-14.1-12.2c-2.9,0-5.5,0.2-8.1,0.7c-0.6,0.1-1.1,0.2-1.6,0.2c-5.3,0-7.9-5.6-8.8-8.1c5.8-2.4,11.8-4,21-4
			c8.4,0,14.7,2.1,18.8,6.1c3.9,3.9,5.9,9.8,5.9,17.6v32.4H350v-5.7C350,108.1,343.1,114.9,330.8,114.9z M338.2,88.1
			c-8.1,0-13,3.6-13,9.5c0,5.4,4.1,8.8,10.6,8.8c8.5,0,14.5-4.8,14.5-11.7v-3.9l-0.9-0.4C346.2,88.9,342.2,88.1,338.2,88.1z"/>
		<path class="st1" d="M294.5,114.4V83.3c0-8.5-4.2-13.4-11.5-13.4c-7.4,0-11.9,5-11.9,13.4v31.1h-13.7V58.9c0,0,13.7-1.3,13.7,6.6
			v1.5c0,0,4.8-9.1,18.7-9.1c11.5,0,18.4,7.6,18.4,20.2v36.4H294.5z"/>
		<path class="st1" d="M371.4,114.4V58.9c0.2,0,0.4,0,0.6,0c1.9,0,5.5,0.2,8.4,1.4c3.2,1.3,4.7,3.4,4.7,6.4V67c0,0,2.8-9.2,18.3-9.2
			c0.2,0,0.3,0,0.5,0c0,0,0,5.4,0,8.5s-1.7,4-4,4.4c-9.5,1.9-14.8,8.1-14.8,21.7v22.1H371.4z"/>
		<path class="st1" d="M424,132.2c-4.7,0-8.8-1-12.9-3.2l4.3-9.3c0.5,0.2,1,0.5,1.5,0.7c1.8,0.7,3.5,1.1,4.9,1.1
			c3.5,0,5.5-1.3,7.1-4.7l0.3-0.6l-23-58.5c0.2,0,0.4,0,0.6,0c5.2,0,14.5,1.6,18.1,12.3l10.8,32.1l1.4-4.3
			c0.1-0.2,6.1-19.5,9.8-30.5c2.5-7.3,11.2-8.4,16.1-8.4c0.2,0,0.4,0,0.6,0l-21.8,58C437.5,128.5,433.2,132.2,424,132.2z"/>
	</g>
</g>
</svg>
